<?xml version="1.0" encoding="UTF-8" ?>
<!DOCTYPE svg PUBLIC "-//W3C//DTD SVG 1.1//EN" "http://www.w3.org/Graphics/SVG/1.1/DTD/svg11.dtd">
<svg width="895pt" height="1117pt" viewBox="0 0 895 1117" version="1.1" xmlns="http://www.w3.org/2000/svg">
<path fill="#fffefe" d=" M 0.00 0.00 L 251.63 0.00 C 242.97 0.32 234.31 0.58 225.66 1.01 C 225.62 11.96 225.63 22.91 225.66 33.86 C 238.54 34.03 251.43 33.47 264.30 34.23 C 264.33 46.94 264.32 59.66 264.31 72.38 C 277.07 72.48 289.83 72.41 302.60 72.42 C 302.64 59.69 302.65 46.96 302.60 34.23 C 315.48 33.47 328.39 34.05 341.29 33.85 C 341.32 22.56 341.29 11.28 341.30 0.00 L 895.00 0.00 L 895.00 1117.00 L 0.00 1117.00 L 0.00 842.50 C 36.70 842.49 73.40 842.50 110.10 842.49 C 110.26 909.28 110.12 976.08 110.17 1042.87 C 122.58 1049.34 135.44 1054.99 148.70 1059.52 C 148.82 1038.51 148.65 1017.50 148.79 996.49 C 161.59 996.52 174.38 996.48 187.18 996.52 C 187.36 1009.26 187.21 1022.01 187.26 1034.76 C 212.96 1034.75 238.66 1034.79 264.36 1034.73 C 264.34 1022.00 264.38 1009.27 264.34 996.54 C 277.09 996.46 289.85 996.52 302.61 996.51 C 302.65 962.16 302.60 927.80 302.64 893.45 C 289.69 892.45 276.85 890.36 264.35 886.82 C 264.26 923.36 264.34 959.91 264.32 996.45 C 251.44 996.46 238.57 996.49 225.69 996.43 C 225.62 983.55 225.70 970.67 225.65 957.78 C 212.87 957.69 200.09 957.78 187.31 957.74 C 187.33 944.99 187.30 932.26 187.32 919.52 C 200.10 919.50 212.89 919.59 225.67 919.47 C 225.67 906.62 225.64 893.77 225.69 880.92 C 233.89 880.83 242.10 880.95 250.31 880.84 C 241.13 875.68 232.95 868.56 227.39 859.56 C 224.00 854.22 221.50 848.38 219.36 842.45 C 195.83 842.38 172.29 842.47 148.76 842.41 C 148.70 829.56 148.78 816.72 148.72 803.88 C 123.02 803.79 97.33 803.89 71.64 803.83 C 71.63 791.03 71.57 778.22 71.68 765.42 C 84.50 765.41 97.32 765.45 110.15 765.39 C 110.24 752.51 110.09 739.62 110.23 726.74 C 135.91 726.79 161.59 726.77 187.28 726.75 C 187.24 752.46 187.27 778.18 187.26 803.90 C 196.07 804.18 204.90 804.18 213.72 803.90 C 213.68 778.18 213.78 752.47 213.67 726.75 C 204.88 726.67 196.09 726.72 187.30 726.72 C 187.30 713.95 187.36 701.19 187.27 688.43 C 161.57 688.38 135.87 688.41 110.16 688.41 C 110.03 675.50 110.49 662.57 109.90 649.68 C 97.14 649.72 84.38 649.72 71.61 649.67 C 71.67 636.94 71.56 624.21 71.67 611.48 C 110.18 611.51 148.68 611.46 187.18 611.50 C 187.36 624.25 187.21 636.99 187.26 649.74 C 196.08 649.74 204.90 649.74 213.72 649.74 C 213.72 598.45 213.71 547.16 213.72 495.88 C 204.91 495.80 196.11 495.86 187.31 495.84 C 187.30 483.03 187.36 470.22 187.27 457.42 C 161.57 457.38 135.86 457.39 110.16 457.42 C 110.20 444.59 110.15 431.77 110.19 418.95 C 144.70 418.72 179.21 418.94 213.72 418.85 C 213.70 406.02 213.74 393.20 213.69 380.37 C 179.18 380.41 144.67 380.36 110.16 380.40 C 110.22 367.56 110.10 354.72 110.23 341.88 C 135.91 341.59 161.60 341.90 187.28 341.73 C 187.33 328.96 187.34 316.19 187.27 303.42 C 174.43 303.36 161.60 303.44 148.76 303.38 C 148.74 264.86 148.70 226.33 148.78 187.81 C 161.59 187.91 174.41 187.49 187.22 188.06 C 187.32 213.62 187.23 239.19 187.26 264.75 C 196.08 264.76 204.90 264.76 213.72 264.75 C 213.69 240.06 213.75 215.37 213.69 190.68 C 220.00 189.47 226.31 188.19 232.69 187.44 C 243.28 185.84 253.75 183.53 264.31 181.75 C 264.39 170.99 264.39 160.23 264.31 149.47 C 225.80 149.41 187.28 149.49 148.76 149.43 C 148.72 136.61 148.74 123.80 148.75 110.99 C 161.60 110.89 174.45 111.07 187.30 110.89 C 187.31 75.30 187.35 39.71 187.28 4.12 C 161.42 6.16 135.69 9.76 110.15 14.29 C 110.01 97.76 110.20 181.24 110.05 264.71 C 73.37 264.73 36.68 264.71 0.00 264.72 L 0.00 226.51 C 23.88 226.46 47.75 226.60 71.63 226.44 C 71.61 162.25 71.65 98.06 71.61 33.87 C 56.39 33.70 41.18 33.88 25.97 33.77 C 16.82 33.31 8.32 37.39 0.00 40.62 L 0.00 0.00 Z" />
<path fill="#b62126" d=" M 251.63 0.00 L 341.30 0.00 C 341.29 11.28 341.32 22.56 341.29 33.85 C 328.39 34.05 315.48 33.47 302.60 34.23 C 302.65 46.96 302.64 59.69 302.60 72.42 C 289.83 72.41 277.07 72.48 264.31 72.38 C 264.32 59.66 264.33 46.94 264.30 34.23 C 251.43 33.47 238.54 34.03 225.66 33.86 C 225.63 22.91 225.62 11.96 225.66 1.01 C 234.31 0.58 242.97 0.32 251.63 0.00 Z" />
<path fill="#b62126" d=" M 380.14 1.00 C 392.83 1.11 405.54 0.60 418.20 1.71 C 418.40 12.42 418.25 23.12 418.29 33.83 C 405.56 33.90 392.83 33.85 380.11 33.85 C 380.10 22.90 380.05 11.95 380.14 1.00 Z" />
<path fill="#b62126" d=" M 110.15 14.29 C 135.69 9.76 161.42 6.16 187.28 4.12 C 187.35 39.71 187.31 75.30 187.30 110.89 C 174.45 111.07 161.60 110.89 148.75 110.99 C 148.74 123.80 148.72 136.61 148.76 149.43 C 187.28 149.49 225.80 149.41 264.31 149.47 C 264.39 160.23 264.39 170.99 264.31 181.75 C 253.75 183.53 243.28 185.84 232.69 187.44 C 226.31 188.19 220.00 189.47 213.69 190.68 C 213.75 215.37 213.69 240.06 213.72 264.75 C 204.90 264.76 196.08 264.76 187.26 264.75 C 187.23 239.19 187.32 213.62 187.22 188.06 C 174.41 187.49 161.59 187.91 148.78 187.81 C 148.70 226.33 148.74 264.86 148.76 303.38 C 161.60 303.44 174.43 303.36 187.27 303.42 C 187.34 316.19 187.33 328.96 187.28 341.73 C 161.60 341.90 135.91 341.59 110.23 341.88 C 110.10 354.72 110.22 367.56 110.16 380.40 C 144.67 380.36 179.18 380.41 213.69 380.37 C 213.74 393.20 213.70 406.02 213.72 418.85 C 179.21 418.94 144.70 418.72 110.19 418.95 C 110.15 431.77 110.20 444.59 110.16 457.42 C 135.86 457.39 161.57 457.38 187.27 457.42 C 187.36 470.22 187.30 483.03 187.31 495.84 C 196.11 495.86 204.91 495.80 213.72 495.88 C 213.71 547.16 213.72 598.45 213.72 649.74 C 204.90 649.74 196.08 649.74 187.26 649.74 C 187.21 636.99 187.36 624.25 187.18 611.50 C 148.68 611.46 110.18 611.51 71.67 611.48 C 71.56 624.21 71.67 636.94 71.61 649.67 C 84.38 649.72 97.14 649.72 109.90 649.68 C 110.49 662.57 110.03 675.50 110.16 688.41 C 135.87 688.41 161.57 688.38 187.27 688.43 C 187.36 701.19 187.30 713.95 187.30 726.72 C 196.09 726.72 204.88 726.67 213.67 726.75 C 213.78 752.47 213.68 778.18 213.72 803.90 C 204.90 804.18 196.07 804.18 187.26 803.90 C 187.27 778.18 187.24 752.46 187.28 726.75 C 161.59 726.77 135.91 726.79 110.23 726.74 C 110.09 739.62 110.24 752.51 110.15 765.39 C 97.32 765.45 84.50 765.41 71.68 765.42 C 71.57 778.22 71.63 791.03 71.64 803.83 C 97.33 803.89 123.02 803.79 148.72 803.88 C 148.78 816.72 148.70 829.56 148.76 842.41 C 172.29 842.47 195.83 842.38 219.36 842.45 C 221.50 848.38 224.00 854.22 227.39 859.56 C 232.95 868.56 241.13 875.68 250.31 880.84 C 242.10 880.95 233.89 880.83 225.69 880.92 C 225.64 893.77 225.67 906.62 225.67 919.47 C 212.89 919.59 200.10 919.50 187.32 919.52 C 187.30 932.26 187.33 944.99 187.31 957.74 C 200.09 957.78 212.87 957.69 225.65 957.78 C 225.70 970.67 225.62 983.55 225.69 996.43 C 238.57 996.49 251.44 996.46 264.32 996.45 C 264.34 959.91 264.26 923.36 264.35 886.82 C 276.85 890.36 289.69 892.45 302.64 893.45 C 302.60 927.80 302.65 962.16 302.61 996.51 C 289.85 996.52 277.09 996.46 264.34 996.54 C 264.38 1009.27 264.34 1022.00 264.36 1034.73 C 238.66 1034.79 212.96 1034.75 187.26 1034.76 C 187.21 1022.01 187.36 1009.26 187.18 996.52 C 174.38 996.48 161.59 996.52 148.79 996.49 C 148.65 1017.50 148.82 1038.51 148.70 1059.52 C 135.44 1054.99 122.58 1049.34 110.17 1042.87 C 110.12 976.08 110.26 909.28 110.10 842.49 C 73.40 842.50 36.70 842.49 0.00 842.50 L 0.00 765.37 C 11.05 765.35 22.10 765.40 33.16 765.33 C 33.23 752.48 33.13 739.63 33.21 726.78 C 22.14 726.74 11.07 726.77 0.00 726.76 L 0.00 688.41 C 11.05 688.40 22.11 688.42 33.16 688.40 C 33.25 701.17 33.16 713.95 33.22 726.73 C 58.82 726.69 84.43 726.71 110.03 726.72 C 110.10 713.95 110.26 701.18 109.94 688.41 C 97.15 688.47 84.37 688.46 71.58 688.42 C 71.54 675.54 71.57 662.66 71.56 649.78 C 58.78 649.70 45.99 649.75 33.20 649.75 C 33.13 637.00 33.26 624.24 33.12 611.49 C 22.08 611.49 11.04 611.49 0.00 611.49 L 0.00 572.76 C 36.69 572.76 73.37 572.77 110.06 572.76 C 110.12 560.00 110.18 547.24 110.02 534.48 C 73.35 534.50 36.67 534.49 0.00 534.49 L 0.00 495.84 C 36.70 495.83 73.39 495.86 110.09 495.83 C 110.14 485.54 110.05 475.26 110.15 464.98 C 110.13 462.48 110.20 459.95 109.65 457.50 C 73.10 457.40 36.55 457.49 0.00 457.46 L 0.00 418.80 C 36.72 418.79 73.43 418.80 110.15 418.79 C 109.96 405.98 110.32 393.17 109.95 380.36 C 73.30 380.42 36.65 380.37 0.00 380.39 L 0.00 264.72 C 36.68 264.71 73.37 264.73 110.05 264.71 C 110.20 181.24 110.01 97.76 110.15 14.29 Z" />
<path fill="#b62126" d=" M 495.36 13.89 C 508.36 16.40 521.13 20.05 533.80 23.91 C 533.76 27.22 533.76 30.54 533.77 33.86 C 520.96 34.01 508.13 33.54 495.33 34.13 C 495.41 46.88 495.36 59.64 495.36 72.39 C 482.50 72.50 469.64 72.35 456.78 72.47 C 456.82 85.30 456.79 98.12 456.79 110.95 C 443.96 111.01 431.12 110.89 418.28 111.02 C 418.30 123.82 418.30 136.63 418.28 149.43 C 431.12 149.46 443.95 149.46 456.79 149.43 C 456.79 162.21 456.83 174.99 456.77 187.77 C 495.29 187.74 533.81 187.84 572.33 187.72 C 572.45 174.95 572.23 162.18 572.44 149.41 C 585.19 149.53 597.95 149.35 610.71 149.51 C 610.66 187.92 610.68 226.33 610.69 264.74 C 597.91 264.77 585.13 264.75 572.35 264.75 C 572.32 252.01 572.43 239.26 572.29 226.52 C 559.47 226.48 546.65 226.53 533.82 226.49 C 533.72 231.45 533.82 236.42 533.69 241.38 C 510.51 223.28 484.47 208.87 456.77 198.99 C 456.72 195.27 456.73 191.56 456.73 187.85 C 443.90 187.71 431.06 187.84 418.24 187.78 C 418.23 175.02 418.22 162.27 418.24 149.52 C 405.36 149.47 392.49 149.54 379.62 149.49 C 379.68 159.89 379.79 170.31 379.60 180.71 L 379.02 181.33 C 353.64 178.61 328.08 179.63 302.60 179.39 C 302.61 143.71 302.49 108.04 302.66 72.37 C 354.02 72.35 405.38 72.37 456.74 72.36 C 456.75 59.51 456.69 46.66 456.77 33.81 C 469.63 33.78 482.49 33.81 495.35 33.80 C 495.28 27.16 495.26 20.52 495.36 13.89 Z" />
<path fill="#b62126" d=" M 0.00 40.62 C 8.32 37.39 16.82 33.31 25.97 33.77 C 41.18 33.88 56.39 33.70 71.61 33.87 C 71.65 98.06 71.61 162.25 71.63 226.44 C 47.75 226.60 23.88 226.46 0.00 226.51 L 0.00 187.77 C 11.05 187.76 22.10 187.79 33.15 187.75 C 33.19 149.31 33.23 110.87 33.13 72.43 C 22.09 72.43 11.04 72.43 0.00 72.43 L 0.00 40.62 Z" />
<path fill="#b62126" d=" M 610.71 54.13 C 637.90 67.18 663.47 83.43 687.63 101.43 C 687.81 155.83 687.59 210.24 687.75 264.64 C 732.55 264.75 777.35 264.68 822.16 264.67 C 828.64 277.25 834.51 290.15 839.51 303.38 C 827.48 303.49 815.44 303.41 803.40 303.42 C 803.41 329.09 803.36 354.75 803.43 380.41 C 823.33 380.41 843.23 380.29 863.14 380.47 C 873.66 431.03 878.35 482.84 876.97 534.47 C 865.27 534.50 853.57 534.51 841.88 534.47 C 841.76 508.79 841.88 483.12 841.82 457.44 C 828.99 457.44 816.16 457.54 803.34 457.39 C 803.30 431.71 803.39 406.04 803.29 380.37 C 790.49 380.42 777.68 380.36 764.88 380.40 C 764.71 393.21 764.84 406.03 764.81 418.84 C 726.36 418.89 687.90 418.82 649.45 418.88 C 649.19 427.62 649.73 436.38 649.12 445.10 C 641.92 408.40 630.03 372.49 612.71 339.29 C 611.55 337.04 610.41 334.66 610.63 332.06 C 610.68 322.51 610.58 312.96 610.70 303.41 C 623.58 303.37 636.46 303.45 649.34 303.36 C 649.34 252.07 649.43 200.79 649.29 149.50 C 636.41 149.50 623.53 149.52 610.65 149.49 C 610.66 136.67 610.63 123.84 610.66 111.02 C 597.89 110.88 585.12 111.02 572.35 110.94 C 572.37 98.08 572.35 85.22 572.36 72.36 C 585.13 72.33 597.90 72.44 610.67 72.30 C 610.64 66.24 610.60 60.19 610.71 54.13 Z" />
<path fill="#fffefe" d=" M 0.00 72.43 C 11.04 72.43 22.09 72.43 33.13 72.43 C 33.23 110.87 33.19 149.31 33.15 187.75 C 22.10 187.79 11.05 187.76 0.00 187.77 L 0.00 72.43 Z" />
<path fill="#fffefe" d=" M 341.29 111.01 C 354.07 110.94 366.86 110.93 379.64 111.02 C 379.53 123.62 379.76 136.23 379.55 148.82 L 378.88 149.35 C 366.36 149.57 353.82 149.44 341.30 149.39 C 341.30 136.60 341.31 123.80 341.29 111.01 Z" />
<path fill="#b62126" d=" M 726.40 134.42 C 739.22 146.33 751.21 159.13 762.45 172.54 C 766.58 176.49 764.18 182.70 764.82 187.74 C 767.94 187.76 771.05 187.78 774.18 187.75 C 783.85 200.02 792.67 212.99 800.64 226.43 C 775.85 226.57 751.06 226.55 726.28 226.44 C 726.38 195.77 726.14 165.09 726.40 134.42 Z" />
<path fill="#fffefe" d=" M 71.70 303.42 C 84.47 303.45 97.25 303.43 110.02 303.43 C 110.23 316.19 110.01 328.96 110.14 341.73 C 97.32 341.72 84.50 341.72 71.67 341.73 C 71.61 328.96 71.56 316.19 71.70 303.42 Z" />
<path fill="#fffefe" d=" M 687.76 303.47 C 713.42 303.38 739.08 303.47 764.73 303.42 C 764.75 316.19 764.74 328.96 764.74 341.73 C 739.07 341.68 713.41 341.79 687.74 341.67 C 687.68 328.94 687.64 316.20 687.76 303.47 Z" />
<path fill="#b62126" d=" M 842.05 310.18 C 846.58 320.34 849.82 331.06 853.01 341.72 C 849.29 341.79 845.57 341.77 841.85 341.78 C 841.94 331.24 841.57 320.70 842.05 310.18 Z" />
<path fill="#fffefe" d=" M 0.00 380.39 C 36.65 380.37 73.30 380.42 109.95 380.36 C 110.32 393.17 109.96 405.98 110.15 418.79 C 73.43 418.80 36.72 418.79 0.00 418.80 L 0.00 380.39 Z" />
<path fill="#fffefe" d=" M 0.00 457.46 C 36.55 457.49 73.10 457.40 109.65 457.50 C 110.20 459.95 110.13 462.48 110.15 464.98 C 110.05 475.26 110.14 485.54 110.09 495.83 C 73.39 495.86 36.70 495.83 0.00 495.84 L 0.00 457.46 Z" />
<path fill="#b62126" d=" M 764.79 457.41 C 777.66 457.42 790.54 457.34 803.41 457.44 C 803.36 495.90 803.45 534.35 803.37 572.81 C 792.23 572.75 781.08 572.84 769.95 572.76 C 768.45 572.83 766.77 572.45 765.57 573.57 C 765.39 573.89 765.03 574.53 764.85 574.85 C 764.71 586.97 764.85 599.11 764.80 611.24 C 752.12 611.19 739.43 611.65 726.75 611.07 C 726.42 598.47 726.37 585.86 726.78 573.27 C 737.18 573.20 747.58 573.21 757.98 573.34 C 760.23 573.28 762.57 573.44 764.76 572.77 C 765.43 570.23 765.21 567.56 765.26 564.97 C 765.02 554.73 765.39 544.48 765.01 534.25 C 752.09 534.27 739.18 534.48 726.27 534.18 C 726.32 521.41 726.29 508.64 726.29 495.87 C 739.11 495.80 751.93 495.87 764.75 495.83 C 764.76 483.03 764.68 470.22 764.79 457.41 Z" />
<path fill="#fffefe" d=" M 148.75 495.93 C 161.58 495.84 174.41 495.98 187.24 495.85 C 187.26 521.48 187.30 547.10 187.22 572.72 C 174.41 572.82 161.59 572.73 148.77 572.77 C 148.71 547.16 148.74 521.55 148.75 495.93 Z" />
<path fill="#b62126" d=" M 656.20 495.88 C 666.68 495.75 677.16 495.96 687.63 495.76 C 687.08 508.70 687.37 521.67 687.45 534.62 C 700.29 534.84 713.14 534.36 725.98 534.83 C 726.22 547.42 726.32 560.02 725.93 572.60 C 713.08 572.74 700.22 572.22 687.39 572.86 C 687.34 585.79 687.25 598.72 687.44 611.65 C 700.28 611.88 713.13 611.28 725.97 611.88 C 726.38 637.48 725.99 663.09 726.13 688.69 C 738.97 688.50 751.81 688.55 764.65 688.77 L 764.70 687.91 C 764.82 662.52 764.66 637.13 764.78 611.73 C 790.42 611.68 816.06 611.46 841.69 611.87 L 841.76 611.00 C 841.95 598.27 841.75 585.53 841.85 572.79 C 853.01 572.74 864.18 572.75 875.35 572.79 C 873.60 598.58 870.39 624.29 865.66 649.71 C 844.91 649.95 824.16 649.38 803.43 650.00 C 803.33 675.59 803.48 701.18 803.35 726.78 C 752.02 726.74 700.69 726.78 649.35 726.76 C 649.36 698.82 649.37 670.87 649.34 642.93 C 649.27 639.91 649.89 636.95 650.54 634.02 C 659.97 588.64 660.17 541.89 656.20 495.88 Z" />
<path fill="#d88a8c" d=" M 687.63 495.76 C 688.04 497.45 688.37 499.16 688.40 500.91 C 688.43 511.99 688.13 523.08 688.52 534.16 C 701.10 534.29 713.69 534.28 726.27 534.18 C 739.18 534.48 752.09 534.27 765.01 534.25 C 765.39 544.48 765.02 554.73 765.26 564.97 C 765.21 567.56 765.43 570.23 764.76 572.77 C 762.57 573.44 760.23 573.28 757.98 573.34 C 747.58 573.21 737.18 573.20 726.78 573.27 C 726.37 585.86 726.42 598.47 726.75 611.07 C 739.43 611.65 752.12 611.19 764.80 611.24 C 790.45 611.23 816.12 611.66 841.76 611.00 L 841.69 611.87 C 816.06 611.46 790.42 611.68 764.78 611.73 C 752.10 611.74 739.41 611.33 726.73 611.88 C 726.34 637.28 726.53 662.69 726.67 688.09 C 739.34 688.31 752.03 688.46 764.70 687.91 L 764.65 688.77 C 751.81 688.55 738.97 688.50 726.13 688.69 C 725.99 663.09 726.38 637.48 725.97 611.88 C 713.13 611.28 700.28 611.88 687.44 611.65 C 687.25 598.72 687.34 585.79 687.39 572.86 C 700.22 572.22 713.08 572.74 725.93 572.60 C 726.32 560.02 726.22 547.42 725.98 534.83 C 713.14 534.36 700.29 534.84 687.45 534.62 C 687.37 521.67 687.08 508.70 687.63 495.76 Z" />
<path fill="#fffefe" d=" M 0.00 534.49 C 36.67 534.49 73.35 534.50 110.02 534.48 C 110.18 547.24 110.12 560.00 110.06 572.76 C 73.37 572.77 36.69 572.76 0.00 572.76 L 0.00 534.49 Z" />
<path fill="#fffefe" d=" M 726.72 534.81 C 739.27 534.48 751.83 534.62 764.39 534.79 C 764.59 547.34 764.52 559.89 764.42 572.45 C 751.86 572.57 739.29 572.63 726.73 572.42 C 726.39 559.89 726.40 547.34 726.72 534.81 Z" />
<path fill="#fffefe" d=" M 688.46 573.46 C 700.96 573.28 713.48 573.24 725.98 573.48 C 726.10 586.02 726.20 598.57 725.92 611.12 C 713.46 611.61 700.98 611.24 688.51 611.23 C 688.20 598.65 688.29 586.05 688.46 573.46 Z" />
<path fill="#fffefe" d=" M 0.00 611.49 C 11.04 611.49 22.08 611.49 33.12 611.49 C 33.26 624.24 33.13 637.00 33.20 649.75 C 45.99 649.75 58.78 649.70 71.56 649.78 C 71.57 662.66 71.54 675.54 71.58 688.42 C 84.37 688.46 97.15 688.47 109.94 688.41 C 110.26 701.18 110.10 713.95 110.03 726.72 C 84.43 726.71 58.82 726.69 33.22 726.73 C 33.16 713.95 33.25 701.17 33.16 688.40 C 22.11 688.42 11.05 688.40 0.00 688.41 L 0.00 611.49 Z" />
<path fill="#fffefe" d=" M 726.73 611.88 C 739.41 611.33 752.10 611.74 764.78 611.73 C 764.66 637.13 764.82 662.52 764.70 687.91 C 752.03 688.46 739.34 688.31 726.67 688.09 C 726.53 662.69 726.34 637.28 726.73 611.88 Z" />
<path fill="#b62126" d=" M 841.88 688.39 C 846.96 688.42 852.04 688.39 857.13 688.42 C 852.81 705.25 848.09 722.02 842.00 738.30 C 841.64 721.67 841.88 705.03 841.88 688.39 Z" />
<path fill="#fffefe" d=" M 0.00 726.76 C 11.07 726.77 22.14 726.74 33.21 726.78 C 33.13 739.63 33.23 752.48 33.16 765.33 C 22.10 765.40 11.05 765.35 0.00 765.37 L 0.00 726.76 Z" />
<path fill="#b62126" d=" M 596.24 765.39 C 601.05 765.34 605.86 765.37 610.67 765.36 C 610.70 778.20 610.66 791.05 610.69 803.90 C 604.80 804.29 598.90 803.81 593.00 803.90 C 583.90 803.80 574.79 804.48 565.70 803.78 C 576.95 791.88 586.97 778.88 596.24 765.39 Z" />
<path fill="#b62126" d=" M 649.37 803.91 C 687.84 803.78 726.31 803.85 764.77 803.87 C 764.75 831.18 764.95 858.50 764.68 885.80 C 762.87 890.17 759.18 893.58 756.49 897.47 C 750.61 905.00 744.58 912.42 738.22 919.55 C 708.63 919.51 679.05 919.49 649.46 919.57 C 649.23 881.02 649.41 842.46 649.37 803.91 Z" />
<path fill="#b62126" d=" M 521.54 842.39 C 525.56 839.24 529.68 836.23 533.72 833.10 C 533.77 836.23 533.77 839.37 533.76 842.51 C 529.69 842.49 525.61 842.54 521.54 842.39 Z" />
<path fill="#b62126" d=" M 572.37 842.41 C 585.14 842.44 597.91 842.43 610.68 842.42 C 610.70 855.24 610.66 868.07 610.70 880.89 C 597.91 880.89 585.13 880.89 572.34 880.89 C 572.38 868.06 572.33 855.24 572.37 842.41 Z" />
<path fill="#fffefe" d=" M 687.71 842.56 C 700.56 842.43 713.42 842.50 726.28 842.52 C 726.30 855.30 726.30 868.09 726.28 880.88 C 713.42 880.83 700.56 880.98 687.70 880.80 C 687.69 868.05 687.68 855.30 687.71 842.56 Z" />
<path fill="#b62126" d=" M 457.13 876.45 C 470.38 871.80 483.01 865.59 495.32 858.88 C 495.42 866.20 495.37 873.53 495.34 880.86 C 508.15 880.91 520.96 880.84 533.77 880.90 C 533.77 893.76 533.76 906.62 533.77 919.48 C 521.22 919.50 508.65 919.64 496.10 919.43 L 495.37 918.94 C 495.18 906.26 495.38 893.56 495.29 880.88 C 482.46 880.89 469.63 880.90 456.81 880.87 C 456.79 893.74 456.80 906.61 456.79 919.48 C 444.49 919.57 432.19 919.49 419.89 919.54 C 419.50 919.35 418.72 918.98 418.32 918.80 C 418.12 908.51 418.20 898.13 418.33 887.82 C 425.99 886.35 433.55 884.38 440.98 882.02 C 445.99 880.24 451.37 881.00 456.57 880.91 C 456.73 879.40 456.91 877.92 457.13 876.45 Z" />
<path fill="#b62126" d=" M 2.03 880.91 C 25.23 880.88 48.43 880.82 71.63 880.94 C 71.58 926.78 71.70 972.63 71.57 1018.47 C 58.12 1008.35 46.73 995.68 37.01 982.00 C 35.47 979.51 32.99 977.19 33.18 974.05 C 33.12 955.87 33.28 937.69 33.11 919.52 C 25.03 919.53 16.95 919.54 8.88 919.50 C 5.66 906.83 3.36 893.92 2.03 880.91 Z" />
<path fill="#b62126" d=" M 379.64 919.51 C 391.85 919.40 404.06 919.52 416.27 919.44 C 416.65 919.63 417.39 920.01 417.76 920.20 C 417.91 920.57 418.20 921.29 418.35 921.65 C 418.22 933.68 418.33 945.71 418.28 957.74 C 431.10 957.76 443.93 957.72 456.75 957.77 C 456.85 983.43 456.78 1009.10 456.79 1034.77 C 443.96 1035.02 431.08 1034.19 418.30 1035.24 C 418.28 1047.94 418.31 1060.63 418.28 1073.34 C 431.11 1073.44 443.95 1073.36 456.79 1073.38 C 456.81 1074.06 456.85 1075.42 456.87 1076.10 C 432.77 1079.80 408.38 1081.50 384.00 1081.45 C 369.76 1081.42 355.51 1081.52 341.26 1081.40 C 341.27 1078.75 341.28 1076.12 341.29 1073.49 C 328.42 1073.36 315.56 1073.46 302.70 1073.44 C 302.63 1076.11 302.61 1078.79 302.59 1081.47 C 276.91 1081.70 251.25 1080.12 225.76 1077.09 C 225.70 1076.19 225.58 1074.38 225.52 1073.47 C 238.45 1073.24 251.38 1073.51 264.30 1073.33 C 264.34 1060.50 264.30 1047.67 264.33 1034.84 C 289.99 1034.57 315.66 1034.79 341.33 1034.73 C 341.21 1021.97 341.30 1009.21 341.28 996.45 C 366.92 996.47 392.57 996.48 418.21 996.44 C 418.26 983.55 418.20 970.67 418.24 957.78 C 405.38 957.76 392.51 957.79 379.65 957.76 C 379.60 945.01 379.62 932.26 379.64 919.51 Z" />
<path fill="#b62126" d=" M 495.33 957.78 C 508.13 957.72 520.93 957.73 533.73 957.77 C 533.85 983.42 533.70 1009.08 533.80 1034.73 C 546.65 1034.70 559.51 1034.75 572.36 1034.70 C 572.36 1021.95 572.35 1009.20 572.36 996.46 C 585.13 996.47 597.91 996.47 610.68 996.46 C 610.67 1005.45 610.73 1014.45 610.64 1023.45 C 604.91 1026.49 599.21 1029.61 593.43 1032.56 C 587.15 1036.52 579.42 1034.10 572.45 1034.77 C 572.41 1037.34 572.39 1039.92 572.40 1042.51 C 547.64 1053.73 521.71 1062.30 495.33 1068.78 C 495.29 1031.78 495.29 994.78 495.33 957.78 Z" />
<path fill="#b62126" d=" M 687.70 957.81 C 692.03 957.72 696.38 957.65 700.72 957.90 C 696.72 962.07 692.32 965.86 687.72 969.34 C 687.61 965.49 687.63 961.64 687.70 957.81 Z" />
<path fill="#b62126" d=" M 649.37 996.36 C 650.57 996.46 651.78 996.57 653.00 996.70 C 651.82 997.48 650.64 998.27 649.47 999.07 C 649.44 998.39 649.39 997.04 649.37 996.36 Z" />
<path fill="#fffefe" d=" M 341.28 1035.17 C 347.49 1034.42 353.76 1034.87 360.00 1034.76 C 366.54 1034.89 373.11 1034.38 379.62 1035.22 C 379.64 1047.92 379.59 1060.61 379.65 1073.31 C 366.87 1073.46 354.08 1073.36 341.29 1073.37 C 341.30 1060.63 341.32 1047.90 341.28 1035.17 Z" />
</svg>
